<svg width="16" height="16" viewBox="0 0 33 35" fill="none" xmlns="http://www.w3.org/2000/svg">
    <path d="M23.0586 21.9184C24.8056 21.9184 26.2218 20.5022 26.2218 18.7552C26.2218 17.0083 24.8056 15.592 23.0586 15.592C21.3116 15.592 19.8954 17.0083 19.8954 18.7552C19.8954 20.5022 21.3116 21.9184 23.0586 21.9184Z" fill="#E15C26"/>
    <path d="M7.04184 18.705C6.99163 19.8096 7.59414 20.8138 8.49791 21.4163C9.45188 22.0188 10.6569 22.0188 11.6109 21.5167C12.6151 20.9644 13.2176 19.9602 13.2678 18.9059V15.8431H9.60251C8.14644 15.9435 6.99163 17.1987 7.04184 18.705Z" fill="#E15C26"/>
    <path d="M16.7322 0.428869H16.6318C10.8075 0.428869 5.43515 3.54184 2.52301 8.56276C-0.38912 13.5837 -0.38912 19.7594 2.52301 24.8305C2.87448 25.4331 3.27615 26.0356 3.72803 26.6883C5.53556 29.6506 0.0125488 28.4958 2.82426 30.454C6.23849 32.864 10.3054 34.1695 14.4728 34.1192H14.6736C20.6987 34.1695 26.3724 31.4079 29.9874 26.5879C31.9958 23.6757 33.0502 20.2615 32.9498 16.7469V16.5962C32.8996 7.7092 25.6695 0.479078 16.7322 0.428869ZM10.0042 24.5293C8.49791 24.5293 7.04184 23.977 5.93724 22.8724C4.88285 21.818 4.28033 20.3619 4.33054 18.8556C4.33054 15.6925 6.841 13.1318 10.0042 13.0314H13.1674V8.61297C13.1674 7.91004 13.7699 7.30753 14.4728 7.30753C15.1757 7.30753 15.7782 7.91004 15.7782 8.61297V10.5711C15.7782 13.8849 15.7782 15.592 15.7782 18.7552C15.728 21.9184 13.1674 24.4791 10.0042 24.5293ZM22.9582 24.5293C19.795 24.5293 17.1841 21.9184 17.1841 18.7552C17.1841 15.5418 19.795 12.931 22.9582 12.931C26.1715 12.931 28.7824 15.5418 28.7824 18.7552C28.7824 21.9184 26.2218 24.4791 23.0586 24.5293H22.9582Z" fill="#E15C26"/>
</svg>
